<svg width="86" height="48" viewBox="0 0 86 48" fill="none" xmlns="http://www.w3.org/2000/svg">
<g clip-path="url(#clip0_10_107)">
<rect y="4" width="86" height="40" rx="20" fill="#6750A4"/>
<path d="M19.8691 27.8242C20.138 27.8242 20.3796 27.7718 20.5938 27.667C20.8125 27.5576 20.988 27.4072 21.1201 27.2158C21.2568 27.0244 21.332 26.8034 21.3457 26.5527H22.8975C22.8883 27.0312 22.7471 27.4665 22.4736 27.8584C22.2002 28.2503 21.8379 28.5625 21.3867 28.7949C20.9355 29.0228 20.4365 29.1367 19.8896 29.1367C19.3245 29.1367 18.8324 29.041 18.4131 28.8496C17.9938 28.6536 17.6452 28.3848 17.3672 28.043C17.0892 27.7012 16.8796 27.307 16.7383 26.8604C16.6016 26.4137 16.5332 25.9352 16.5332 25.4248V25.1855C16.5332 24.6751 16.6016 24.1966 16.7383 23.75C16.8796 23.2988 17.0892 22.9023 17.3672 22.5605C17.6452 22.2188 17.9938 21.9521 18.4131 21.7607C18.8324 21.5648 19.3223 21.4668 19.8828 21.4668C20.4753 21.4668 20.9948 21.5853 21.4414 21.8223C21.888 22.0547 22.2389 22.3805 22.4941 22.7998C22.7539 23.2145 22.8883 23.6976 22.8975 24.249H21.3457C21.332 23.9756 21.2637 23.7295 21.1406 23.5107C21.0221 23.2874 20.8535 23.1097 20.6348 22.9775C20.4206 22.8454 20.1631 22.7793 19.8623 22.7793C19.5296 22.7793 19.2539 22.8477 19.0352 22.9844C18.8164 23.1165 18.6455 23.2988 18.5225 23.5312C18.3994 23.7591 18.3105 24.0166 18.2559 24.3037C18.2057 24.5863 18.1807 24.8802 18.1807 25.1855V25.4248C18.1807 25.7301 18.2057 26.0264 18.2559 26.3135C18.306 26.6006 18.3926 26.8581 18.5156 27.0859C18.6432 27.3092 18.8164 27.4893 19.0352 27.626C19.2539 27.7581 19.5319 27.8242 19.8691 27.8242ZM27.8578 25.835H25.4926L25.4789 24.6729H27.4203C27.7393 24.6729 28.0014 24.641 28.2064 24.5771C28.4161 24.5133 28.571 24.4176 28.6713 24.29C28.7715 24.1579 28.8217 23.9984 28.8217 23.8115C28.8217 23.6566 28.7921 23.5221 28.7328 23.4082C28.6736 23.2897 28.5824 23.194 28.4594 23.1211C28.3409 23.0436 28.1905 22.9889 28.0082 22.957C27.8305 22.9206 27.6231 22.9023 27.3861 22.9023H26.0395V29H24.392V21.6035H27.3861C27.8601 21.6035 28.2862 21.6445 28.6645 21.7266C29.0473 21.8086 29.3731 21.9339 29.642 22.1025C29.9109 22.2712 30.116 22.4854 30.2572 22.7451C30.4031 23.0003 30.476 23.3011 30.476 23.6475C30.476 23.8753 30.4258 24.0895 30.3256 24.29C30.2299 24.4906 30.0863 24.6683 29.8949 24.8232C29.7035 24.9782 29.4688 25.1058 29.1908 25.2061C28.9128 25.3018 28.5938 25.361 28.2338 25.3838L27.8578 25.835ZM27.8578 29H25.0141L25.6703 27.7012H27.8578C28.1495 27.7012 28.391 27.6647 28.5824 27.5918C28.7738 27.5189 28.9151 27.4141 29.0062 27.2773C29.102 27.1361 29.1498 26.9697 29.1498 26.7783C29.1498 26.5824 29.1042 26.4137 29.0131 26.2725C28.9219 26.1312 28.7807 26.0241 28.5893 25.9512C28.4024 25.8737 28.1586 25.835 27.8578 25.835H25.9779L25.9916 24.6729H28.227L28.6986 25.124C29.168 25.1559 29.5577 25.2562 29.8676 25.4248C30.1775 25.5934 30.4099 25.8053 30.5648 26.0605C30.7198 26.3158 30.7973 26.5938 30.7973 26.8945C30.7973 27.2409 30.7312 27.5462 30.599 27.8105C30.4714 28.0749 30.28 28.2959 30.0248 28.4736C29.7742 28.6468 29.4665 28.779 29.102 28.8701C28.7374 28.9567 28.3227 29 27.8578 29ZM35.5799 29.1367C35.033 29.1367 34.5385 29.0479 34.0965 28.8701C33.659 28.6878 33.2853 28.4349 32.9754 28.1113C32.6701 27.7878 32.4354 27.4072 32.2713 26.9697C32.1072 26.5322 32.0252 26.0605 32.0252 25.5547V25.2812C32.0252 24.7025 32.1095 24.1784 32.2781 23.709C32.4467 23.2396 32.6814 22.8385 32.9822 22.5059C33.283 22.1686 33.6385 21.9111 34.0486 21.7334C34.4588 21.5557 34.9031 21.4668 35.3816 21.4668C35.9103 21.4668 36.3729 21.5557 36.7693 21.7334C37.1658 21.9111 37.4939 22.1618 37.7537 22.4854C38.018 22.8044 38.214 23.1849 38.3416 23.627C38.4738 24.069 38.5398 24.5566 38.5398 25.0898V25.7939H32.825V24.6113H36.9129V24.4814C36.9038 24.1852 36.8445 23.9072 36.7352 23.6475C36.6303 23.3877 36.4686 23.1781 36.2498 23.0186C36.0311 22.859 35.7394 22.7793 35.3748 22.7793C35.1014 22.7793 34.8576 22.8385 34.6434 22.957C34.4337 23.071 34.2583 23.2373 34.117 23.4561C33.9757 23.6748 33.8663 23.9391 33.7889 24.249C33.716 24.5544 33.6795 24.8984 33.6795 25.2812V25.5547C33.6795 25.8783 33.7228 26.179 33.8094 26.457C33.9005 26.7305 34.0327 26.9697 34.2059 27.1748C34.379 27.3799 34.5887 27.5417 34.8348 27.6602C35.0809 27.7741 35.3611 27.8311 35.6756 27.8311C36.0721 27.8311 36.4253 27.7513 36.7352 27.5918C37.0451 27.4323 37.3139 27.2067 37.5418 26.915L38.41 27.7559C38.2505 27.9883 38.0431 28.2116 37.7879 28.4258C37.5327 28.6354 37.2205 28.8063 36.8514 28.9385C36.4868 29.0706 36.063 29.1367 35.5799 29.1367ZM43.2883 21.6035V29H41.634V21.6035H43.2883ZM45.715 21.6035V22.9023H39.2482V21.6035H45.715ZM51.4342 21.6035V22.916H47.8248V21.6035H51.4342ZM52.7262 21.6035V29H51.0787V21.6035H52.7262ZM47.4215 21.6035H49.0484L48.8502 25.2607C48.8229 25.8031 48.7682 26.2816 48.6861 26.6963C48.6087 27.1064 48.5038 27.4596 48.3717 27.7559C48.2395 28.0475 48.0777 28.2845 47.8863 28.4668C47.6949 28.6491 47.4716 28.7835 47.2164 28.8701C46.9612 28.9567 46.6741 29 46.3551 29H45.8424L45.8355 27.6465L46.0953 27.626C46.2639 27.6123 46.4098 27.569 46.5328 27.4961C46.6559 27.4186 46.7607 27.3092 46.8473 27.168C46.9384 27.0267 47.0113 26.8444 47.066 26.6211C47.1253 26.3978 47.1708 26.1335 47.2027 25.8281C47.2392 25.5228 47.2665 25.1673 47.2848 24.7617L47.4215 21.6035ZM58.7461 27.5166V23.9893C58.7461 23.7249 58.6982 23.4971 58.6025 23.3057C58.5068 23.1143 58.361 22.9661 58.165 22.8613C57.9736 22.7565 57.7321 22.7041 57.4404 22.7041C57.1715 22.7041 56.9391 22.7497 56.7432 22.8408C56.5472 22.932 56.3945 23.055 56.2852 23.21C56.1758 23.3649 56.1211 23.5404 56.1211 23.7363H54.4805C54.4805 23.4447 54.5511 23.1621 54.6924 22.8887C54.8337 22.6152 55.0387 22.3714 55.3076 22.1572C55.5765 21.943 55.8978 21.7744 56.2715 21.6514C56.6452 21.5283 57.0645 21.4668 57.5293 21.4668C58.0853 21.4668 58.5775 21.5602 59.0059 21.7471C59.4388 21.9339 59.7783 22.2165 60.0244 22.5947C60.2751 22.9684 60.4004 23.4378 60.4004 24.0029V27.291C60.4004 27.6283 60.4232 27.9313 60.4688 28.2002C60.5189 28.4645 60.5895 28.6947 60.6807 28.8906V29H58.9922C58.9147 28.8223 58.8532 28.5967 58.8076 28.3232C58.7666 28.0452 58.7461 27.7764 58.7461 27.5166ZM58.9854 24.502L58.999 25.5205H57.8164C57.5111 25.5205 57.2422 25.5501 57.0098 25.6094C56.7773 25.6641 56.5837 25.7461 56.4287 25.8555C56.2738 25.9648 56.1576 26.097 56.0801 26.252C56.0026 26.4069 55.9639 26.5824 55.9639 26.7783C55.9639 26.9743 56.0094 27.1543 56.1006 27.3184C56.1917 27.4779 56.3239 27.6032 56.4971 27.6943C56.6748 27.7855 56.889 27.8311 57.1396 27.8311C57.4769 27.8311 57.7708 27.7627 58.0215 27.626C58.2767 27.4847 58.4772 27.3138 58.623 27.1133C58.7689 26.9082 58.8464 26.7145 58.8555 26.5322L59.3887 27.2637C59.334 27.4505 59.2406 27.651 59.1084 27.8652C58.9762 28.0794 58.8031 28.2845 58.5889 28.4805C58.3792 28.6719 58.1263 28.8291 57.8301 28.9521C57.5384 29.0752 57.2012 29.1367 56.8184 29.1367C56.3353 29.1367 55.9046 29.041 55.5264 28.8496C55.1481 28.6536 54.8519 28.3916 54.6377 28.0635C54.4235 27.7308 54.3164 27.3548 54.3164 26.9355C54.3164 26.5436 54.3893 26.1973 54.5352 25.8965C54.6855 25.5911 54.9043 25.3359 55.1914 25.1309C55.4831 24.9258 55.8385 24.7708 56.2578 24.666C56.6771 24.5566 57.1556 24.502 57.6934 24.502H58.9854ZM63.7816 25.3838H65.4906L63.392 29H61.6898L63.7816 25.3838ZM64.9848 21.6035H68.1566V29H66.516V22.9023H64.9848C64.6749 22.9023 64.4197 22.957 64.2191 23.0664C64.0186 23.1712 63.8705 23.3102 63.7748 23.4834C63.6791 23.652 63.6312 23.8252 63.6312 24.0029C63.6312 24.1807 63.6745 24.3516 63.7611 24.5156C63.8523 24.6797 63.9913 24.8141 64.1781 24.9189C64.3695 25.0238 64.6088 25.0762 64.8959 25.0762H67.0697V26.2793H64.8959C64.4402 26.2793 64.0323 26.2223 63.6723 26.1084C63.3122 25.9899 63.0069 25.8281 62.7562 25.623C62.5056 25.4134 62.3142 25.1696 62.182 24.8916C62.0499 24.609 61.9838 24.3014 61.9838 23.9688C61.9838 23.627 62.0521 23.3125 62.1889 23.0254C62.3256 22.7383 62.5215 22.4876 62.7768 22.2734C63.0365 22.0592 63.351 21.8952 63.7201 21.7812C64.0938 21.6628 64.5154 21.6035 64.9848 21.6035Z" fill="white"/>
</g>
<defs>
<clipPath id="clip0_10_107">
<rect y="4" width="86" height="40" rx="20" fill="white"/>
</clipPath>
</defs>
</svg>
